# Blender v2.90.1 OBJ File: 'ATG_Setting.blend'
# www.blender.org
mtllib ATG_Setting_Ground.mtl
o Plane
v -42.305733 -1.237317 43.613575
v 42.305733 -1.237317 43.613575
v -42.305733 -1.237317 -43.613575
v 42.305733 -1.237317 -43.613575
v 23.510832 0.000000 32.532330
v 15.103167 0.000000 26.614573
v 16.195736 0.000000 20.647099
v 21.267139 0.000000 15.873694
v 20.875450 0.000000 10.118438
v 28.569687 0.000000 8.572904
v 32.572926 0.000000 16.114094
v 29.619194 0.000000 20.402800
v 28.033283 0.000000 25.297550
v 29.091370 0.000000 29.433754
v 2.314174 0.000000 -26.103094
v 6.024239 0.000000 -20.502960
v 10.018387 0.000000 -20.068916
v 18.580982 0.000000 -22.386913
v 22.831493 0.000000 -32.233097
v 17.408180 0.000000 -34.140224
v 10.712731 0.000000 -31.322351
v 0.737558 0.000000 -33.405720
v -1.055593 0.000000 -28.338459
v -23.513727 0.000000 2.471623
v -28.500706 0.000000 11.039858
v -37.589199 0.000000 7.301576
v -34.191467 0.000000 1.156113
v -37.061932 0.000000 -12.560117
v -32.130299 0.000000 -20.019016
v -21.014923 0.000000 -13.781961
v -42.305733 6.375676 -43.613575
v -42.305733 6.375676 43.613575
v 42.305733 6.375676 43.613575
v 42.305733 6.375676 -43.613575
v 23.510832 6.375676 32.532330
v 15.103167 6.375676 26.614573
v 16.195736 6.375676 20.647099
v 21.267139 6.375676 15.873694
v 20.875450 6.375676 10.118438
v 28.569687 6.375676 8.572904
v 32.572926 6.375676 16.114094
v 29.619194 6.375676 20.402800
v 28.033283 6.375676 25.297550
v 29.091370 6.375676 29.433754
v 2.314174 6.375676 -26.103094
v 6.024239 6.375676 -20.502960
v 10.018387 6.375676 -20.068916
v 18.580982 6.375676 -22.386913
v 22.831493 6.375676 -32.233097
v 17.408180 6.375676 -34.140224
v 10.712731 6.375676 -31.322351
v 0.737558 6.375676 -33.405720
v -1.055593 6.375676 -28.338459
v -23.513727 6.375676 2.471623
v -28.500706 6.375676 11.039858
v -37.589199 6.375676 7.301576
v -34.191467 6.375676 1.156113
v -37.061932 6.375676 -12.560117
v -32.130299 6.375676 -20.019016
v -21.014923 6.375676 -13.781961
vt 0.000000 0.000000
vt 0.000000 0.000000
vt 0.000000 0.000000
vt 0.000000 0.000000
vt 0.678500 0.194882
vt 0.777868 0.127039
vt 0.843823 0.162562
vt 0.831318 0.209981
vt 0.850061 0.266096
vt 0.884971 0.315263
vt 0.837657 0.401717
vt 0.746721 0.383999
vt 0.751351 0.318019
vt 0.691413 0.263295
vt 0.229673 0.482967
vt 0.167380 0.379735
vt 0.167380 0.379735
vt 0.229673 0.482967
vt 0.000000 0.000000
vt 0.000000 0.000000
vt 0.766185 0.981577
vt 0.687053 0.949272
vt 0.569159 0.973156
vt 0.547967 0.915063
vt 0.587793 0.889436
vt 0.631641 0.825235
vt 0.678847 0.820259
vt 0.780046 0.846833
vt 0.830282 0.959713
vt 0.777868 0.127039
vt 0.843823 0.162562
vt 0.128032 0.741100
vt 0.065019 0.648535
vt 0.099314 0.491839
vt 0.057439 0.418822
vt 0.267146 0.681151
vt 1.000000 0.000000
vt 0.884971 0.315263
vt 0.850061 0.266096
vt 0.831318 0.209981
vt 0.678500 0.194882
vt 0.691413 0.263295
vt 0.751351 0.318019
vt 0.746721 0.383999
vt 0.837657 0.401717
vt 1.000000 1.000000
vt 0.830282 0.959713
vt 0.780046 0.846833
vt 0.678847 0.820259
vt 0.631641 0.825235
vt 0.587793 0.889436
vt 0.267146 0.681151
vt 0.057439 0.418822
vt 0.000000 1.000000
vt 0.547967 0.915063
vt 0.569159 0.973156
vt 0.687053 0.949272
vt 0.766185 0.981577
vt 0.099314 0.491839
vt 0.065019 0.648535
vt 0.128032 0.741100
vt 0.000000 0.000000
vt 0.000000 0.000000
vn 0.0000 0.0000 1.0000
vn 0.0000 1.0000 0.0000
vn -0.8643 0.0000 -0.5030
vn -1.0000 0.0000 0.0000
vn -0.4854 0.0000 -0.8743
vn 0.3804 0.0000 -0.9248
vn 1.0000 0.0000 0.0000
vn 0.8751 0.0000 0.4839
vn 0.8337 0.0000 -0.5523
vn 0.0000 0.0000 -1.0000
vn 0.9788 0.0000 -0.2048
vn 0.1080 0.0000 -0.9941
vn 0.5756 0.0000 -0.8177
vn 0.8342 0.0000 0.5515
vn -0.2613 0.0000 -0.9653
vn 0.9836 0.0000 0.1801
vn -0.4893 0.0000 0.8721
vn -0.9181 0.0000 -0.3963
vn 0.6854 0.0000 0.7282
vn -0.9884 0.0000 -0.1520
vn -0.3317 0.0000 0.9434
vn 0.9977 0.0000 -0.0679
vn 0.3879 0.0000 0.9217
vn 0.1969 0.0000 0.9804
vn -0.2044 0.0000 0.9789
vn -0.8833 0.0000 0.4689
vn 0.9427 0.0000 0.3336
vn -0.8236 0.0000 -0.5672
vn 0.5528 0.0000 -0.8333
vn -0.9513 0.0000 -0.3082
vn -0.9688 0.0000 0.2478
vn 0.0000 -1.0000 0.0000
g Plane_Plane_None
usemtl None
s off
f 1/1/1 2/2/1 33/3/1 32/4/1
f 6/5/2 5/6/2 14/7/2 13/8/2 12/9/2 11/10/2 10/11/2 9/12/2 8/13/2 7/14/2
f 24/15/3 25/16/3 55/17/3 54/18/3
f 3/19/4 1/1/4 32/4/4 31/20/4
f 20/21/2 21/22/2 22/23/2 23/24/2 15/25/2 16/26/2 17/27/2 18/28/2 19/29/2
f 14/7/5 5/6/5 35/30/5 44/31/5
f 29/32/2 28/33/2 27/34/2 26/35/2 25/16/2 24/15/2 30/36/2
f 32/4/2 33/37/2 41/38/2 42/39/2 43/40/2 44/31/2 35/30/2 36/41/2
f 37/42/2 38/43/2 39/44/2 40/45/2 41/38/2 33/37/2 34/46/2 49/47/2 48/48/2 47/49/2 46/50/2 45/51/2 60/52/2 54/18/2 55/17/2 56/53/2 32/4/2 36/41/2
f 31/54/2 53/55/2 52/56/2 51/57/2 50/58/2 49/47/2 34/46/2
f 32/4/2 56/53/2 57/59/2 58/60/2 59/61/2 60/52/2 45/51/2 53/55/2 31/54/2
f 25/16/6 26/35/6 56/53/6 55/17/6
f 2/2/7 4/62/7 34/63/7 33/3/7
f 26/35/8 27/34/8 57/59/8 56/53/8
f 16/26/9 15/25/9 45/51/9 46/50/9
f 4/62/10 3/19/10 31/20/10 34/63/10
f 27/34/11 28/33/11 58/60/11 57/59/11
f 17/27/12 16/26/12 46/50/12 47/49/12
f 5/6/13 6/5/13 36/41/13 35/30/13
f 28/33/14 29/32/14 59/61/14 58/60/14
f 18/28/15 17/27/15 47/49/15 48/48/15
f 6/5/16 7/14/16 37/42/16 36/41/16
f 29/32/17 30/36/17 60/52/17 59/61/17
f 19/29/18 18/28/18 48/48/18 49/47/18
f 7/14/19 8/13/19 38/43/19 37/42/19
f 30/36/20 24/15/20 54/18/20 60/52/20
f 20/21/21 19/29/21 49/47/21 50/58/21
f 8/13/22 9/12/22 39/44/22 38/43/22
f 21/22/23 20/21/23 50/58/23 51/57/23
f 9/12/24 10/11/24 40/45/24 39/44/24
f 22/23/25 21/22/25 51/57/25 52/56/25
f 10/11/26 11/10/26 41/38/26 40/45/26
f 23/24/27 22/23/27 52/56/27 53/55/27
f 11/10/28 12/9/28 42/39/28 41/38/28
f 15/25/29 23/24/29 53/55/29 45/51/29
f 12/9/30 13/8/30 43/40/30 42/39/30
f 13/8/31 14/7/31 44/31/31 43/40/31
f 3/19/32 4/62/32 2/2/32 1/1/32
